STARTFONT 2.1
FONT -FontForge-Peking Assignment-Book-R-Normal--38-360-75-75-P-110-ISO10646-1
SIZE 36 75 75
FONTBOUNDINGBOX 22 24 -5 -5
COMMENT "Generated by fontforge, http://fontforge.sourceforge.net"
COMMENT "Copyright NAL 2014"
STARTPROPERTIES 39
FOUNDRY "FontForge"
FAMILY_NAME "Peking Assignment"
WEIGHT_NAME "Book"
SLANT "R"
SETWIDTH_NAME "Normal"
ADD_STYLE_NAME ""
PIXEL_SIZE 38
POINT_SIZE 360
RESOLUTION_X 75
RESOLUTION_Y 75
SPACING "P"
AVERAGE_WIDTH 110
CHARSET_REGISTRY "ISO10646"
CHARSET_ENCODING "1"
FONTNAME_REGISTRY ""
CHARSET_COLLECTIONS "ISO10646-1"
FONT_NAME "Peking-Assignment"
FACE_NAME "Peking Assignment Regular"
COPYRIGHT "Copyright NAL 2014"
FONT_VERSION "1.0"
FONT_ASCENT 30
FONT_DESCENT 8
UNDERLINE_POSITION 3
UNDERLINE_THICKNESS 2
X_HEIGHT 11
CAP_HEIGHT 16
RAW_ASCENT 799
RAW_DESCENT 200
NORM_SPACE 5
RELATIVE_WEIGHT 40
RELATIVE_SETWIDTH 50
SUPERSCRIPT_X 0
SUPERSCRIPT_Y 19
SUPERSCRIPT_SIZE 19
SUBSCRIPT_X 0
SUBSCRIPT_Y -2
SUBSCRIPT_SIZE 19
AVG_LOWERCASE_WIDTH 115
AVG_UPPERCASE_WIDTH 140
ENDPROPERTIES
CHARS 102
STARTCHAR space
ENCODING 32
SWIDTH 125 0
DWIDTH 5 0
BBX 1 1 0 0
BITMAP
00
ENDCHAR
STARTCHAR exclam
ENCODING 33
SWIDTH 125 0
DWIDTH 5 0
BBX 2 17 0 0
BITMAP
C0
C0
C0
C0
C0
C0
C0
C0
C0
C0
C0
C0
00
00
00
C0
C0
ENDCHAR
STARTCHAR quotedbl
ENCODING 34
SWIDTH 187 0
DWIDTH 7 0
BBX 5 5 0 12
BITMAP
F8
F8
F8
F0
A0
ENDCHAR
STARTCHAR numbersign
ENCODING 35
SWIDTH 375 0
DWIDTH 14 0
BBX 12 17 0 0
BITMAP
39C0
39C0
39C0
39C0
39C0
FFF0
FFF0
F9C0
39C0
39C0
FFF0
FFF0
39C0
39C0
39C0
39C0
39C0
ENDCHAR
STARTCHAR dollar
ENCODING 36
SWIDTH 375 0
DWIDTH 14 0
BBX 12 21 0 -2
BITMAP
0600
0600
3FF0
7FF0
FFF0
C670
C670
C600
C600
C7F0
FFF0
FFF0
0670
0670
C670
C670
C670
FFE0
FFC0
0600
0600
ENDCHAR
STARTCHAR percent
ENCODING 37
SWIDTH 375 0
DWIDTH 14 0
BBX 12 17 0 0
BITMAP
F870
F870
F870
F870
F870
0070
0070
0070
7FE0
FFC0
C000
C000
C1F0
C1F0
C1F0
C1F0
C1F0
ENDCHAR
STARTCHAR ampersand
ENCODING 38
SWIDTH 375 0
DWIDTH 14 0
BBX 12 17 0 0
BITMAP
C600
CE00
DE00
C000
C000
C1C0
C1C0
C1F0
7FF0
3FF0
C1C0
C1C0
C1C0
C1C0
C1C0
FFF0
FFF0
ENDCHAR
STARTCHAR quotesingle
ENCODING 39
SWIDTH 125 0
DWIDTH 5 0
BBX 2 5 0 12
BITMAP
C0
C0
C0
C0
80
ENDCHAR
STARTCHAR parenleft
ENCODING 40
SWIDTH 187 0
DWIDTH 7 0
BBX 5 17 0 0
BITMAP
F8
F8
F8
C0
C0
C0
C0
C0
C0
C0
C0
C0
C0
C0
C0
F8
F8
ENDCHAR
STARTCHAR parenright
ENCODING 41
SWIDTH 187 0
DWIDTH 7 0
BBX 5 17 0 0
BITMAP
F8
F8
F8
38
38
38
38
38
38
38
38
38
38
38
38
F8
F8
ENDCHAR
STARTCHAR asterisk
ENCODING 42
SWIDTH 250 0
DWIDTH 10 0
BBX 7 7 0 10
BITMAP
38
BA
FE
38
38
FE
BA
ENDCHAR
STARTCHAR plus
ENCODING 43
SWIDTH 250 0
DWIDTH 10 0
BBX 7 7 0 5
BITMAP
38
38
3E
FE
FE
38
38
ENDCHAR
STARTCHAR comma
ENCODING 44
SWIDTH 125 0
DWIDTH 5 0
BBX 2 4 0 -2
BITMAP
C0
C0
C0
80
ENDCHAR
STARTCHAR hyphen
ENCODING 45
SWIDTH 250 0
DWIDTH 10 0
BBX 7 3 0 7
BITMAP
FE
FE
FE
ENDCHAR
STARTCHAR period
ENCODING 46
SWIDTH 125 0
DWIDTH 5 0
BBX 2 2 0 0
BITMAP
C0
C0
ENDCHAR
STARTCHAR slash
ENCODING 47
SWIDTH 375 0
DWIDTH 14 0
BBX 12 17 0 0
BITMAP
0070
0070
0070
0070
0070
0070
0070
0070
7FE0
FFC0
C000
C000
C000
C000
C000
C000
C000
ENDCHAR
STARTCHAR zero
ENCODING 48
SWIDTH 375 0
DWIDTH 14 0
BBX 12 17 0 0
BITMAP
FFF0
FFF0
FFF0
C070
C070
C070
C070
C070
C070
C070
C070
C070
C070
C070
C070
FFF0
FFF0
ENDCHAR
STARTCHAR one
ENCODING 49
SWIDTH 187 0
DWIDTH 7 0
BBX 5 17 0 0
BITMAP
F8
F8
F8
08
18
38
38
38
38
38
38
38
38
38
38
38
38
ENDCHAR
STARTCHAR two
ENCODING 50
SWIDTH 375 0
DWIDTH 14 0
BBX 12 17 0 0
BITMAP
C7C0
CFE0
DFF0
C070
C070
0070
0070
0070
FFF0
FFF0
C000
C000
C070
C070
C070
FFF0
FF70
ENDCHAR
STARTCHAR three
ENCODING 51
SWIDTH 375 0
DWIDTH 14 0
BBX 12 17 0 0
BITMAP
FE70
FF70
FFF0
C070
C070
0070
0070
0070
3FE0
3FC0
0070
0070
C070
C070
C070
FFF0
FFF0
ENDCHAR
STARTCHAR four
ENCODING 52
SWIDTH 375 0
DWIDTH 14 0
BBX 12 17 0 0
BITMAP
C1C0
C1C0
C1C0
C1C0
C1C0
C1C0
C1C0
C1C0
C1C0
C1C0
CFF0
DFF0
01C0
01C0
01C0
01C0
01C0
ENDCHAR
STARTCHAR five
ENCODING 53
SWIDTH 375 0
DWIDTH 14 0
BBX 12 17 0 0
BITMAP
FE70
FF70
FFF0
C070
C070
C000
C000
FFF0
FFF0
FFF0
0070
0070
C070
C070
C070
DFE0
CFC0
ENDCHAR
STARTCHAR six
ENCODING 54
SWIDTH 375 0
DWIDTH 14 0
BBX 12 17 0 0
BITMAP
FE70
FF70
FFF0
C070
C070
C000
C000
C7F0
CFF0
DFF0
C070
C070
C070
C070
C070
FFF0
FFF0
ENDCHAR
STARTCHAR seven
ENCODING 55
SWIDTH 375 0
DWIDTH 14 0
BBX 12 17 0 0
BITMAP
C7F0
CFF0
DFF0
C070
C070
0070
0070
0070
7FE0
FFC0
C000
C000
C000
C000
C000
C000
C000
ENDCHAR
STARTCHAR eight
ENCODING 56
SWIDTH 375 0
DWIDTH 14 0
BBX 12 17 0 0
BITMAP
FE70
FF70
FFF0
C070
C070
C070
C070
C070
7FE0
FFC0
C070
C070
C070
C070
C070
FFF0
FFF0
ENDCHAR
STARTCHAR nine
ENCODING 57
SWIDTH 375 0
DWIDTH 14 0
BBX 12 17 0 0
BITMAP
FFF0
FFF0
FFF0
C070
C070
C070
C070
FFF0
FFF0
FF70
0070
0070
C070
C070
C070
DFF0
CFF0
ENDCHAR
STARTCHAR colon
ENCODING 58
SWIDTH 125 0
DWIDTH 5 0
BBX 2 7 0 5
BITMAP
C0
C0
C0
00
00
C0
C0
ENDCHAR
STARTCHAR semicolon
ENCODING 59
SWIDTH 125 0
DWIDTH 5 0
BBX 2 9 0 3
BITMAP
C0
C0
C0
00
00
C0
C0
C0
80
ENDCHAR
STARTCHAR less
ENCODING 60
SWIDTH 187 0
DWIDTH 7 0
BBX 5 17 0 0
BITMAP
F8
F8
F8
C0
C0
C0
C0
C0
C0
C0
C0
C0
C0
C0
C0
F8
F8
ENDCHAR
STARTCHAR equal
ENCODING 61
SWIDTH 250 0
DWIDTH 10 0
BBX 7 7 0 5
BITMAP
FE
FE
FE
00
00
FE
FE
ENDCHAR
STARTCHAR greater
ENCODING 62
SWIDTH 187 0
DWIDTH 7 0
BBX 5 17 0 0
BITMAP
F8
F8
F8
38
38
38
38
38
38
38
38
38
38
38
38
F8
F8
ENDCHAR
STARTCHAR question
ENCODING 63
SWIDTH 375 0
DWIDTH 14 0
BBX 12 17 0 0
BITMAP
C7C0
CFE0
DFF0
C070
C070
0070
0070
0070
3FF0
3FF0
3800
3800
0000
0000
0000
3800
3800
ENDCHAR
STARTCHAR at
ENCODING 64
SWIDTH 375 0
DWIDTH 14 0
BBX 12 17 0 0
BITMAP
FFF0
FFF0
FFF0
C070
C070
C670
C670
C670
C670
C670
C670
C6F0
0000
4000
C000
FFF0
FFF0
ENDCHAR
STARTCHAR A
ENCODING 65
SWIDTH 375 0
DWIDTH 14 0
BBX 12 17 0 0
BITMAP
FFF0
FFF0
FFF0
C070
C070
C070
C070
C070
CFF0
DFF0
C070
C070
C070
C070
C070
C070
C070
ENDCHAR
STARTCHAR B
ENCODING 66
SWIDTH 375 0
DWIDTH 14 0
BBX 12 17 0 0
BITMAP
C7F0
CFF0
DFF0
C070
C070
C070
C070
C070
CFE0
DFC0
C070
C070
C070
C070
C070
DFF0
CFF0
ENDCHAR
STARTCHAR C
ENCODING 67
SWIDTH 375 0
DWIDTH 14 0
BBX 12 17 0 0
BITMAP
FE70
FF70
FFF0
C070
C070
C000
C000
C000
C000
C000
C000
C000
C070
C070
C070
FFF0
FF70
ENDCHAR
STARTCHAR D
ENCODING 68
SWIDTH 375 0
DWIDTH 14 0
BBX 12 17 0 0
BITMAP
C7F0
CFF0
DFF0
C070
C070
C070
C070
C070
C070
C070
C070
C070
C070
C070
C070
DFF0
CFF0
ENDCHAR
STARTCHAR E
ENCODING 69
SWIDTH 375 0
DWIDTH 14 0
BBX 12 17 0 0
BITMAP
C7F0
CFF0
DFF0
C070
C070
C000
C000
C7C0
CFC0
DFC0
C000
C000
C070
C070
C070
FFF0
FFF0
ENDCHAR
STARTCHAR F
ENCODING 70
SWIDTH 375 0
DWIDTH 14 0
BBX 12 17 0 0
BITMAP
C7F0
CFF0
DFF0
C070
C070
C000
C000
C7C0
CFC0
DFC0
C000
C000
C000
C000
C000
C000
C000
ENDCHAR
STARTCHAR G
ENCODING 71
SWIDTH 375 0
DWIDTH 14 0
BBX 12 17 0 0
BITMAP
FE70
FF70
FFF0
C070
C070
C000
C000
C7F0
C7F0
C7F0
C070
C070
C070
C070
C070
FFF0
FF70
ENDCHAR
STARTCHAR H
ENCODING 72
SWIDTH 375 0
DWIDTH 14 0
BBX 12 17 0 0
BITMAP
C070
C070
C070
C070
C070
C070
C070
C070
CFF0
DFF0
C070
C070
C070
C070
C070
C070
C070
ENDCHAR
STARTCHAR I
ENCODING 73
SWIDTH 125 0
DWIDTH 5 0
BBX 2 17 0 0
BITMAP
C0
C0
C0
C0
C0
C0
C0
C0
C0
C0
C0
C0
C0
C0
C0
C0
C0
ENDCHAR
STARTCHAR J
ENCODING 74
SWIDTH 375 0
DWIDTH 14 0
BBX 12 17 0 0
BITMAP
01F0
01F0
01F0
0070
0070
0070
0070
0070
0070
0070
0070
0070
C070
C070
C070
DFF0
CFF0
ENDCHAR
STARTCHAR K
ENCODING 75
SWIDTH 375 0
DWIDTH 14 0
BBX 12 17 0 0
BITMAP
C070
C070
C070
C070
C070
C070
C070
C070
CFE0
DFC0
C070
C070
C070
C070
C070
C070
C070
ENDCHAR
STARTCHAR L
ENCODING 76
SWIDTH 375 0
DWIDTH 14 0
BBX 12 17 0 0
BITMAP
F800
F800
F800
C000
C000
C000
C000
C000
C000
C000
C000
C000
C070
C070
C070
CFF0
DFF0
ENDCHAR
STARTCHAR M
ENCODING 77
SWIDTH 500 0
DWIDTH 19 0
BBX 17 17 0 0
BITMAP
C7CF80
CFDF80
DFFF80
C1C380
C1C380
C1C380
C1C380
C1C380
C1C380
C1C380
C1C380
C1C380
C1C380
C1C380
C1C380
C1C380
C1C380
ENDCHAR
STARTCHAR N
ENCODING 78
SWIDTH 375 0
DWIDTH 14 0
BBX 12 17 0 0
BITMAP
C7F0
CFF0
DFF0
C070
C070
C070
C070
C070
C070
C070
C070
C070
C070
C070
C070
C070
C070
ENDCHAR
STARTCHAR O
ENCODING 79
SWIDTH 375 0
DWIDTH 14 0
BBX 12 17 0 0
BITMAP
FFF0
FFF0
FFF0
C070
C070
C070
C070
C070
C070
C070
C070
C070
C070
C070
C070
FFF0
FFF0
ENDCHAR
STARTCHAR P
ENCODING 80
SWIDTH 375 0
DWIDTH 14 0
BBX 12 17 0 0
BITMAP
C7F0
CFF0
DFF0
C070
C070
C070
C070
C070
DFF0
CFF0
C000
C000
C000
C000
C000
C000
C000
ENDCHAR
STARTCHAR Q
ENCODING 81
SWIDTH 375 0
DWIDTH 14 0
BBX 12 19 0 -2
BITMAP
FFF0
FFF0
FFF0
C070
C070
C070
C070
C070
C070
C070
C670
C670
C670
C670
C670
FEF0
FE70
0600
0600
ENDCHAR
STARTCHAR R
ENCODING 82
SWIDTH 375 0
DWIDTH 14 0
BBX 12 17 0 0
BITMAP
C7F0
CFF0
DFF0
C070
C070
C070
C070
FFF0
DFE0
CFF0
C070
C070
C070
C070
C070
C070
C070
ENDCHAR
STARTCHAR S
ENCODING 83
SWIDTH 375 0
DWIDTH 14 0
BBX 12 17 0 0
BITMAP
FE70
FF70
FFF0
C070
C070
C000
C000
FFF0
FFF0
FFF0
0070
0070
C070
C070
C070
DFF0
CFF0
ENDCHAR
STARTCHAR T
ENCODING 84
SWIDTH 375 0
DWIDTH 14 0
BBX 12 17 0 0
BITMAP
FFF0
F7F0
E7F0
C670
C670
0600
0600
0600
0600
0600
0600
0600
0600
0600
0600
0600
0600
ENDCHAR
STARTCHAR U
ENCODING 85
SWIDTH 375 0
DWIDTH 14 0
BBX 12 17 0 0
BITMAP
C070
C070
C070
C070
C070
C070
C070
C070
C070
C070
C070
C070
C070
C070
C070
FFF0
FF70
ENDCHAR
STARTCHAR V
ENCODING 86
SWIDTH 375 0
DWIDTH 14 0
BBX 12 17 0 0
BITMAP
C070
C070
C070
C070
C070
C070
C070
C070
C070
C070
C070
C070
C070
C070
C070
7FE0
3FC0
ENDCHAR
STARTCHAR W
ENCODING 87
SWIDTH 500 0
DWIDTH 19 0
BBX 17 17 0 0
BITMAP
C1C380
C1C380
C1C380
C1C380
C1C380
C1C380
C1C380
C1C380
C1C380
C1C380
C1C380
C1C380
C1C380
C1C380
C1C380
FDFB80
F9F380
ENDCHAR
STARTCHAR X
ENCODING 88
SWIDTH 375 0
DWIDTH 14 0
BBX 12 17 0 0
BITMAP
C070
C070
C070
C070
C070
C070
4070
0070
FFF0
FFF0
C040
C060
C070
C070
C070
C070
C070
ENDCHAR
STARTCHAR Y
ENCODING 89
SWIDTH 375 0
DWIDTH 14 0
BBX 12 17 0 0
BITMAP
C070
C070
C070
C070
C070
C070
4070
0070
FFF0
FFF0
0000
0400
0600
0600
0600
0600
0600
ENDCHAR
STARTCHAR Z
ENCODING 90
SWIDTH 375 0
DWIDTH 14 0
BBX 12 17 0 0
BITMAP
C7F0
CFF0
DFF0
C070
C070
0070
0070
0070
7FE0
FFC0
C000
C000
C070
C070
C070
FFF0
FF70
ENDCHAR
STARTCHAR bracketleft
ENCODING 91
SWIDTH 187 0
DWIDTH 7 0
BBX 5 17 0 0
BITMAP
F8
F8
F8
C0
C0
C0
C0
C0
C0
C0
C0
C0
C0
C0
C0
F8
F8
ENDCHAR
STARTCHAR backslash
ENCODING 92
SWIDTH 375 0
DWIDTH 14 0
BBX 12 17 0 0
BITMAP
C000
C000
C000
C000
C000
C000
C000
FFC0
7FE0
3FF0
0070
0070
0070
0070
0070
0070
0070
ENDCHAR
STARTCHAR bracketright
ENCODING 93
SWIDTH 187 0
DWIDTH 7 0
BBX 5 17 0 0
BITMAP
F8
F8
F8
38
38
38
38
38
38
38
38
38
38
38
38
F8
F8
ENDCHAR
STARTCHAR asciicircum
ENCODING 94
SWIDTH 125 0
DWIDTH 5 0
BBX 2 5 0 12
BITMAP
C0
C0
C0
C0
80
ENDCHAR
STARTCHAR underscore
ENCODING 95
SWIDTH 375 0
DWIDTH 14 0
BBX 12 2 0 0
BITMAP
FFF0
FFF0
ENDCHAR
STARTCHAR grave
ENCODING 96
SWIDTH 125 0
DWIDTH 5 0
BBX 2 5 0 12
BITMAP
C0
C0
C0
C0
80
ENDCHAR
STARTCHAR a
ENCODING 97
SWIDTH 312 0
DWIDTH 12 0
BBX 10 12 0 0
BITMAP
F9C0
FDC0
C1C0
C1C0
C1C0
C1C0
C1C0
C1C0
C1C0
C1C0
FDC0
F9C0
ENDCHAR
STARTCHAR b
ENCODING 98
SWIDTH 312 0
DWIDTH 12 0
BBX 10 17 0 0
BITMAP
C000
C000
C000
C000
C000
CFC0
DFC0
FFC0
C1C0
C1C0
C1C0
C1C0
C1C0
C1C0
C1C0
DFC0
CFC0
ENDCHAR
STARTCHAR c
ENCODING 99
SWIDTH 312 0
DWIDTH 12 0
BBX 10 12 0 0
BITMAP
FFC0
FFC0
FFC0
41C0
C1C0
C000
C000
C1C0
C1C0
C1C0
FFC0
FFC0
ENDCHAR
STARTCHAR d
ENCODING 100
SWIDTH 312 0
DWIDTH 12 0
BBX 10 17 0 0
BITMAP
01C0
01C0
01C0
01C0
01C0
F9C0
FDC0
C1C0
C1C0
C1C0
C1C0
C1C0
C1C0
C1C0
C1C0
FDC0
F9C0
ENDCHAR
STARTCHAR e
ENCODING 101
SWIDTH 312 0
DWIDTH 12 0
BBX 10 12 0 0
BITMAP
FFC0
FFC0
FFC0
41C0
C1C0
DFC0
CFC0
C000
C000
C000
FFC0
FFC0
ENDCHAR
STARTCHAR f
ENCODING 102
SWIDTH 250 0
DWIDTH 10 0
BBX 7 17 0 0
BITMAP
FE
FE
FE
40
00
FE
FE
C0
C0
C0
C0
C0
C0
C0
C0
C0
C0
ENDCHAR
STARTCHAR g
ENCODING 103
SWIDTH 312 0
DWIDTH 12 0
BBX 10 17 0 -5
BITMAP
F9C0
FDC0
C1C0
C1C0
C1C0
C1C0
C1C0
C1C0
C1C0
C1C0
FDC0
F9C0
01C0
01C0
3FC0
3FC0
3FC0
ENDCHAR
STARTCHAR h
ENCODING 104
SWIDTH 312 0
DWIDTH 12 0
BBX 10 17 0 0
BITMAP
C000
C000
C000
C000
C000
CFC0
DFC0
FFC0
C1C0
C1C0
C1C0
C1C0
C1C0
C1C0
C1C0
C1C0
C1C0
ENDCHAR
STARTCHAR i
ENCODING 105
SWIDTH 125 0
DWIDTH 5 0
BBX 2 17 0 0
BITMAP
C0
C0
C0
00
00
C0
C0
C0
C0
C0
C0
C0
C0
C0
C0
C0
C0
ENDCHAR
STARTCHAR j
ENCODING 106
SWIDTH 125 0
DWIDTH 5 0
BBX 7 22 -5 -5
BITMAP
06
06
06
00
00
06
06
06
06
06
06
06
06
06
06
06
06
06
06
FE
FE
FE
ENDCHAR
STARTCHAR k
ENCODING 107
SWIDTH 312 0
DWIDTH 12 0
BBX 10 17 0 0
BITMAP
C000
C000
C000
C000
C000
C1C0
C1C0
C1C0
41C0
01C0
FFC0
FFC0
C000
C100
C180
C1C0
C1C0
ENDCHAR
STARTCHAR l
ENCODING 108
SWIDTH 125 0
DWIDTH 5 0
BBX 2 17 0 0
BITMAP
C0
C0
C0
C0
C0
C0
C0
C0
C0
C0
C0
C0
C0
C0
C0
C0
C0
ENDCHAR
STARTCHAR m
ENCODING 109
SWIDTH 500 0
DWIDTH 19 0
BBX 17 12 0 0
BITMAP
CFDF80
DFFF80
FFFF80
C1C380
C1C380
C1C380
C1C380
C1C380
C1C380
C1C380
C1C380
C1C380
ENDCHAR
STARTCHAR n
ENCODING 110
SWIDTH 312 0
DWIDTH 12 0
BBX 10 12 0 0
BITMAP
CFC0
DFC0
FFC0
C1C0
C1C0
C1C0
C1C0
C1C0
C1C0
C1C0
C1C0
C1C0
ENDCHAR
STARTCHAR o
ENCODING 111
SWIDTH 312 0
DWIDTH 12 0
BBX 10 12 0 0
BITMAP
FFC0
FFC0
C1C0
C1C0
C1C0
C1C0
C1C0
C1C0
C1C0
C1C0
FFC0
FFC0
ENDCHAR
STARTCHAR p
ENCODING 112
SWIDTH 312 0
DWIDTH 12 0
BBX 10 17 0 -5
BITMAP
CFC0
DFC0
FFC0
C1C0
C1C0
C1C0
C1C0
C1C0
C1C0
C1C0
DFC0
CFC0
C000
C000
C000
C000
C000
ENDCHAR
STARTCHAR q
ENCODING 113
SWIDTH 312 0
DWIDTH 12 0
BBX 10 17 0 -5
BITMAP
F9C0
FDC0
C1C0
C1C0
C1C0
C1C0
C1C0
C1C0
C1C0
C1C0
FDC0
F9C0
01C0
01C0
01C0
01C0
01C0
ENDCHAR
STARTCHAR r
ENCODING 114
SWIDTH 250 0
DWIDTH 10 0
BBX 7 12 0 0
BITMAP
CE
DE
FE
C0
C0
C0
C0
C0
C0
C0
C0
C0
ENDCHAR
STARTCHAR s
ENCODING 115
SWIDTH 312 0
DWIDTH 12 0
BBX 10 12 0 0
BITMAP
FFC0
FFC0
C000
4000
0000
FFC0
FFC0
01C0
01C0
01C0
FFC0
FFC0
ENDCHAR
STARTCHAR t
ENCODING 116
SWIDTH 250 0
DWIDTH 10 0
BBX 7 17 0 0
BITMAP
C0
C0
C0
C0
C0
FE
FE
FE
40
C0
C0
C0
C0
C0
C0
FE
FE
ENDCHAR
STARTCHAR u
ENCODING 117
SWIDTH 312 0
DWIDTH 12 0
BBX 10 12 0 0
BITMAP
C1C0
C1C0
C1C0
C1C0
C1C0
C1C0
C1C0
C1C0
C1C0
C1C0
FDC0
F9C0
ENDCHAR
STARTCHAR v
ENCODING 118
SWIDTH 312 0
DWIDTH 12 0
BBX 10 12 0 0
BITMAP
C1C0
C1C0
C1C0
C1C0
C1C0
C1C0
C1C0
C1C0
C1C0
C1C0
7F80
3F00
ENDCHAR
STARTCHAR w
ENCODING 119
SWIDTH 500 0
DWIDTH 19 0
BBX 17 12 0 0
BITMAP
C1C380
C1C380
C1C380
C1C380
C1C380
C1C380
C1C380
C1C380
C1C380
C1C380
FDFB80
F9F380
ENDCHAR
STARTCHAR x
ENCODING 120
SWIDTH 312 0
DWIDTH 12 0
BBX 10 12 0 0
BITMAP
C1C0
C1C0
C1C0
41C0
01C0
FFC0
FFC0
C000
C100
C180
C1C0
C1C0
ENDCHAR
STARTCHAR y
ENCODING 121
SWIDTH 312 0
DWIDTH 12 0
BBX 10 17 0 -5
BITMAP
C1C0
C1C0
C1C0
C1C0
C1C0
C1C0
C1C0
C1C0
C1C0
C1C0
FDC0
F9C0
01C0
01C0
3FC0
3FC0
3FC0
ENDCHAR
STARTCHAR z
ENCODING 122
SWIDTH 312 0
DWIDTH 12 0
BBX 10 12 0 0
BITMAP
FFC0
FFC0
FFC0
01C0
01C0
FFC0
FFC0
C000
4000
0000
FFC0
FFC0
ENDCHAR
STARTCHAR braceleft
ENCODING 123
SWIDTH 250 0
DWIDTH 10 0
BBX 7 17 0 0
BITMAP
3E
3E
3E
38
38
38
38
38
F8
F8
38
38
38
38
38
3E
3E
ENDCHAR
STARTCHAR bar
ENCODING 124
SWIDTH 125 0
DWIDTH 5 0
BBX 2 17 0 0
BITMAP
C0
C0
C0
C0
C0
C0
C0
C0
C0
C0
C0
C0
C0
C0
C0
C0
C0
ENDCHAR
STARTCHAR braceright
ENCODING 125
SWIDTH 250 0
DWIDTH 10 0
BBX 7 17 0 0
BITMAP
F8
F8
F8
38
38
38
38
3E
3E
3E
38
38
38
38
38
F8
F8
ENDCHAR
STARTCHAR asciitilde
ENCODING 126
SWIDTH 250 0
DWIDTH 10 0
BBX 7 3 0 7
BITMAP
FE
FE
FE
ENDCHAR
STARTCHAR quoteleft
ENCODING 8216
SWIDTH 125 0
DWIDTH 5 0
BBX 2 4 0 12
BITMAP
40
C0
C0
C0
ENDCHAR
STARTCHAR quoteright
ENCODING 8217
SWIDTH 125 0
DWIDTH 5 0
BBX 2 5 0 12
BITMAP
C0
C0
C0
C0
80
ENDCHAR
STARTCHAR quotedblleft
ENCODING 8220
SWIDTH 187 0
DWIDTH 7 0
BBX 5 4 0 12
BITMAP
48
D8
F8
F8
ENDCHAR
STARTCHAR quotedblright
ENCODING 8221
SWIDTH 187 0
DWIDTH 7 0
BBX 5 5 0 12
BITMAP
F8
F8
F8
F0
A0
ENDCHAR
STARTCHAR .notdef
ENCODING -1
SWIDTH 125 0
DWIDTH 5 0
BBX 17 17 0 0
BITMAP
FFFF80
FFFF80
FFFF80
FC1F80
FC1F80
FFFF80
FCFF80
FCFF80
FCFF80
FC1F80
FC1F80
FC1F80
FCFF80
FCFF80
FCFF80
FFFF80
FFFF80
ENDCHAR
STARTCHAR glyph1
ENCODING -1
SWIDTH 0 0
DWIDTH 0 0
BBX 1 1 0 0
BITMAP
00
ENDCHAR
STARTCHAR glyph2
ENCODING -1
SWIDTH 125 0
DWIDTH 5 0
BBX 1 1 0 0
BITMAP
00
ENDCHAR
ENDFONT
